<svg width="22" height="22" viewBox="0 0 22 22" fill="none" xmlns="http://www.w3.org/2000/svg">
<path fill-rule="evenodd" clip-rule="evenodd" d="M7.31143 9.00007H3.26C2.66553 8.99546 2.09345 9.21143 1.66961 9.60048C1.24577 9.98953 1.00491 10.5198 1 11.0746V18.9259C1.011 20.0807 2.02263 21.0087 3.26 20.9991H7.31143C7.9059 21.0037 8.47798 20.7877 8.90182 20.3987C9.32566 20.0096 9.56652 19.4794 9.57143 18.9246V11.0746C9.56652 10.5198 9.32566 9.98953 8.90182 9.60048C8.47798 9.21143 7.9059 8.99546 7.31143 9.00007Z" stroke="white" stroke-linecap="round" stroke-linejoin="round"/>
<path fill-rule="evenodd" clip-rule="evenodd" d="M7.31143 1.0008H3.26C2.04751 0.969418 1.03655 1.85982 1 2.99131V4.3432C1.03655 5.47468 2.04751 6.36509 3.26 6.3337H7.31143C8.52392 6.36509 9.53488 5.47468 9.57143 4.3432V2.99131C9.53488 1.85982 8.52392 0.969418 7.31143 1.0008Z" stroke="white" stroke-linecap="round" stroke-linejoin="round"/>
<path fill-rule="evenodd" clip-rule="evenodd" d="M14.6886 12.9997H18.7386C19.3333 13.0047 19.9058 12.7888 20.3299 12.3998C20.754 12.0107 20.9951 11.4802 21 10.9252V3.07518C20.9951 2.52039 20.7542 1.99014 20.3304 1.60109C19.9066 1.21204 19.3345 0.996067 18.74 1.00068H14.6886C14.0941 0.996067 13.522 1.21204 13.0982 1.60109C12.6744 1.99014 12.4335 2.52039 12.4286 3.07518V10.9252C12.4335 11.48 12.6744 12.0102 13.0982 12.3993C13.522 12.7883 14.0941 13.0043 14.6886 12.9997Z" stroke="white" stroke-linecap="round" stroke-linejoin="round"/>
<path fill-rule="evenodd" clip-rule="evenodd" d="M14.6886 20.9992H18.7386C19.9516 21.0313 20.9635 20.1407 21 19.0087V17.6568C20.9635 16.5253 19.9525 15.6349 18.74 15.6663H14.6886C13.4761 15.6349 12.4651 16.5253 12.4286 17.6568V19.0073C12.4644 20.1393 13.4756 21.0305 14.6886 20.9992Z" stroke="white" stroke-linecap="round" stroke-linejoin="round"/>
</svg>
