<svg width="24" height="22" viewBox="0 0 24 22" fill="none" xmlns="http://www.w3.org/2000/svg">
<path fill-rule="evenodd" clip-rule="evenodd" d="M9.41227 10.0844C9.43271 8.60398 10.6011 7.41911 12.0262 7.43348C13.4514 7.44784 14.5974 8.65604 14.5902 10.1366C14.583 11.6171 13.4253 12.8132 12 12.8126C10.5615 12.7984 9.40463 11.5788 9.41227 10.0844V10.0844Z" stroke="white" stroke-linecap="round" stroke-linejoin="round"/>
<path d="M0.701371 6.95383C0.479891 7.11876 0.434047 7.43201 0.598976 7.65349C0.763904 7.87497 1.07715 7.92081 1.29863 7.75588L0.701371 6.95383ZM7.52163 2.49842L7.82025 2.89945L7.8208 2.89904L7.52163 2.49842ZM16.477 2.49842L16.1778 2.89904L16.1784 2.89948L16.477 2.49842ZM22.7014 7.75591C22.9229 7.92082 23.2361 7.87494 23.4011 7.65345C23.566 7.43195 23.5201 7.11871 23.2986 6.9538L22.7014 7.75591ZM4.08773 10.0845C4.08773 9.80833 3.86388 9.58447 3.58773 9.58447C3.31159 9.58447 3.08773 9.80833 3.08773 10.0845H4.08773ZM3.58773 15.5422L4.08773 15.5458V15.5422H3.58773ZM5.08802 19.385L5.45078 19.0409L5.45078 19.0409L5.08802 19.385ZM8.76461 21L8.76079 21.5H8.76461V21ZM15.2354 21L15.2354 21.5L15.2392 21.5L15.2354 21ZM18.912 19.385L19.2747 19.729L19.2747 19.729L18.912 19.385ZM20.4122 15.5422L19.9122 15.5422L19.9122 15.5458L20.4122 15.5422ZM20.9122 10.0845C20.9122 9.80833 20.6884 9.58447 20.4122 9.58447C20.1361 9.58447 19.9122 9.80833 19.9122 10.0845H20.9122ZM1 7.35486L1.29863 7.75588L7.82025 2.89945L7.52163 2.49842L7.223 2.0974L0.701371 6.95383L1 7.35486ZM7.52163 2.49842L7.8208 2.89904C10.3187 1.03365 13.6799 1.03365 16.1778 2.89904L16.477 2.49842L16.7762 2.09781C13.9234 -0.0326018 10.0752 -0.0326018 7.22245 2.09781L7.52163 2.49842ZM16.477 2.49842L16.1784 2.89948L22.7014 7.75591L23 7.35486L23.2986 6.9538L16.7756 2.09737L16.477 2.49842ZM3.58773 10.0845H3.08773V15.5422H3.58773H4.08773V10.0845H3.58773ZM3.58773 15.5422L3.08775 15.5387C3.0766 17.1022 3.6636 18.6098 4.72525 19.729L5.08802 19.385L5.45078 19.0409C4.57071 18.113 4.07838 16.8561 4.08772 15.5458L3.58773 15.5422ZM5.08802 19.385L4.72525 19.729C5.78752 20.8489 7.2387 21.4884 8.76079 21.5L8.76461 21L8.76843 20.5C7.52409 20.4905 6.33024 19.968 5.45078 19.0409L5.08802 19.385ZM8.76461 21V21.5H15.2354V21V20.5H8.76461V21ZM15.2354 21L15.2392 21.5C16.7613 21.4884 18.2125 20.8489 19.2747 19.729L18.912 19.385L18.5492 19.0409C17.6697 19.968 16.4759 20.4905 15.2315 20.5L15.2354 21ZM18.912 19.385L19.2747 19.729C20.3364 18.6098 20.9234 17.1022 20.9122 15.5387L20.4122 15.5422L19.9122 15.5458C19.9216 16.8561 19.4293 18.113 18.5492 19.0409L18.912 19.385ZM20.4122 15.5422H20.9122V10.0845H20.4122H19.9122V15.5422H20.4122Z" fill="white"/>
</svg>
