<svg width="29" height="33" viewBox="0 0 29 33" fill="none" xmlns="http://www.w3.org/2000/svg">
<path d="M14.5491 5.6492C8.49561 5.79512 3.70476 10.8175 3.84443 16.8711V21.3594C2.25063 21.4406 1 22.7565 1 24.3523C1 25.9482 2.25063 27.2641 3.84443 27.3452H10.0297M14.5491 5.6492L14.5491 1M14.5491 5.6492C20.6026 5.79512 25.3935 10.8175 25.2538 16.8711V21.3594C26.8476 21.4406 28.0982 22.7565 28.0982 24.3523C28.0982 25.9482 26.8476 27.2641 25.2538 27.3452L10.0259 27.3451M10.0278 27.3451C10.0233 28.5732 10.4979 29.7546 11.3509 30.6383C12.1866 31.5082 13.3408 32 14.5471 32C15.7535 32 16.9077 31.5082 17.7434 30.6383C18.5963 29.7546 19.071 28.5732 19.0665 27.3451" stroke="white" stroke-width="1.5" stroke-linecap="round" stroke-linejoin="round"/>
</svg>
