<svg width="542" height="433" viewBox="0 0 542 433" fill="none" xmlns="http://www.w3.org/2000/svg">
<path d="M374.639 0.501953C376.157 0.519469 377.572 0.677843 378.748 1.10938C379.913 1.53683 380.829 2.2253 381.396 3.30664C381.97 4.39868 382.22 5.95435 381.922 8.1748C381.77 9.29906 381.273 10.7033 380.546 12.2676C379.823 13.8245 378.887 15.5082 377.882 17.1855C375.934 20.4371 373.771 23.5927 372.389 25.7656H372.38L372.233 25.999C349.501 62.0598 329.228 95.9375 310.247 134.794C304.109 147.36 298.273 160.698 292.322 173.896C286.368 187.101 280.296 200.172 273.675 212.231V212.232C272.587 214.217 270.257 218.222 269.047 219.838V219.839C268.754 220.232 268.206 220.917 267.638 221.53C267.353 221.837 267.071 222.119 266.817 222.336C266.549 222.566 266.363 222.679 266.267 222.71H266.266C265.925 222.821 265.123 222.913 264.005 222.972C262.912 223.029 261.582 223.051 260.236 223.048C257.53 223.041 254.813 222.926 253.83 222.776C251.842 222.474 249.478 221.528 246.822 220.041C244.172 218.557 241.261 216.553 238.184 214.161C232.03 209.378 225.245 203.074 218.608 196.377C205.336 182.983 192.696 168.05 186.953 160.651C183.158 155.764 177.975 148.905 173.188 141.865C168.396 134.817 164.025 127.62 161.833 122.049C160.189 117.875 159.055 111.876 159.669 106.741C159.976 104.177 160.714 101.865 162.007 100.103C163.29 98.3538 165.137 97.1217 167.729 96.7246C176.397 95.3949 187.072 98.5831 197.453 103.472C207.814 108.351 217.794 114.881 225.039 120.129C229.123 123.088 232.971 126.404 236.856 129.708C240.736 133.006 244.652 136.29 248.847 139.155L249.254 139.434L249.537 139.03C253.091 133.971 256.294 128.609 259.431 123.21C262.571 117.805 265.642 112.368 268.945 107.132C286.164 79.8445 305.876 52.4772 328.271 30.0859C332.782 25.5703 340.439 18.4217 348.383 12.2988C352.355 9.2372 356.389 6.4395 360.132 4.35645C363.886 2.26672 367.297 0.924573 370.033 0.719727C371.541 0.607408 373.122 0.48449 374.639 0.501953ZM360.753 22.5195C360.728 22.5288 360.702 22.536 360.678 22.5459C360.397 22.6605 360.066 22.8597 359.718 23.0977C359.013 23.5789 358.135 24.2894 357.264 25.0371C356.39 25.7861 355.508 26.5848 354.787 27.248L353.282 28.6484C321.213 58.3873 290.671 105.825 269.137 145.438C268.145 147.259 265.547 152.866 262.973 158.084C261.68 160.705 260.39 163.235 259.299 165.171C258.753 166.139 258.262 166.95 257.85 167.545C257.643 167.843 257.462 168.079 257.309 168.251C257.146 168.433 257.046 168.505 257.008 168.524C255.249 169.402 253.297 168.951 251.306 167.884C249.813 167.084 248.378 165.981 247.083 164.957L245.837 163.974C241.976 160.969 238.205 157.634 234.398 154.277C230.597 150.925 226.761 147.552 222.791 144.492C219.122 141.663 213.216 136.99 207.252 132.686C201.307 128.395 195.235 124.417 191.241 123.018H191.24C190.81 122.868 190.121 122.656 189.438 122.592C188.796 122.531 187.956 122.582 187.456 123.194L187.215 123.49L187.436 123.801C201.704 143.881 217.863 163.571 235.598 180.201L237.319 181.801C237.892 182.33 238.401 182.783 238.913 183.229L240.518 184.617C241.972 185.879 245.39 189.101 248.855 191.771C250.589 193.108 252.361 194.327 253.933 195.104C254.718 195.492 255.473 195.78 256.162 195.911C256.762 196.025 257.348 196.026 257.866 195.835L258.084 195.741C258.185 195.691 258.271 195.617 258.332 195.561C258.401 195.497 258.474 195.419 258.55 195.333C258.701 195.161 258.884 194.934 259.089 194.663C259.5 194.12 260.025 193.375 260.625 192.497C261.825 190.739 263.338 188.421 264.863 186.042C267.915 181.283 271.03 176.261 271.823 174.941C282.953 156.453 293.318 137.478 303.79 118.546C314.264 99.6102 324.848 80.7151 336.419 62.3672C340.193 56.3837 344.496 50.3125 348.75 44.2227C353 38.1383 357.2 32.0365 360.748 26.0146C360.871 25.8076 361.001 25.6156 361.142 25.3945C361.278 25.1806 361.419 24.9496 361.539 24.7021C361.784 24.1958 361.941 23.6132 361.827 22.9043L361.36 22.9785L361.718 22.6631C361.715 22.6604 361.712 22.6579 361.71 22.6553H361.711L361.704 22.6484L360.573 21.3955L360.753 22.5195Z" fill="#36CCFE" stroke="#33CCFF"/>
<path d="M33.8477 388.246L21.7891 421H18.7266L31.8857 386.164H34.0151L33.8477 388.246ZM44.8057 421L32.7231 388.246L32.5557 386.164H34.6851L47.8682 421H44.8057ZM42.6523 408.702V411.238H24.1577V408.702H42.6523ZM68.6597 415.019V395.112H71.5308V421H68.7793L68.6597 415.019ZM69.186 410.233L70.6694 410.186C70.6694 411.812 70.478 413.312 70.0952 414.684C69.7124 416.055 69.1143 417.252 68.3008 418.272C67.4873 419.293 66.4346 420.083 65.1426 420.641C63.8506 421.199 62.2954 421.479 60.4771 421.479C59.217 421.479 58.0605 421.303 57.0078 420.952C55.971 420.585 55.0778 420.011 54.3281 419.229C53.5785 418.448 52.9963 417.435 52.5815 416.191C52.1828 414.947 51.9834 413.439 51.9834 411.669V395.112H54.8306V411.717C54.8306 413.104 54.9821 414.261 55.2852 415.186C55.6042 416.111 56.0348 416.853 56.5771 417.411C57.1354 417.969 57.7734 418.368 58.4912 418.607C59.209 418.847 59.9826 418.966 60.812 418.966C62.9175 418.966 64.5763 418.56 65.7886 417.746C67.0168 416.933 67.8861 415.864 68.3965 414.54C68.9229 413.2 69.186 411.765 69.186 410.233ZM88.8052 395.112V397.457H75.8374V395.112H88.8052ZM80.5986 388.461H83.4458V414.708C83.4458 415.904 83.6053 416.805 83.9243 417.411C84.2433 418.017 84.658 418.424 85.1685 418.631C85.6789 418.839 86.2292 418.942 86.8193 418.942C87.25 418.942 87.6647 418.918 88.0635 418.871C88.4622 418.807 88.8211 418.743 89.1401 418.679L89.2598 421.096C88.9089 421.207 88.4543 421.295 87.896 421.359C87.3377 421.439 86.7795 421.479 86.2212 421.479C85.1206 421.479 84.1476 421.279 83.3022 420.88C82.4569 420.466 81.7949 419.764 81.3164 418.775C80.8379 417.77 80.5986 416.406 80.5986 414.684V388.461ZM92.7529 408.463V407.673C92.7529 405.791 93.0241 404.053 93.5664 402.458C94.1087 400.862 94.8823 399.483 95.8872 398.318C96.908 397.154 98.1283 396.253 99.5479 395.615C100.967 394.961 102.547 394.634 104.285 394.634C106.04 394.634 107.627 394.961 109.046 395.615C110.466 396.253 111.686 397.154 112.707 398.318C113.728 399.483 114.509 400.862 115.052 402.458C115.594 404.053 115.865 405.791 115.865 407.673V408.463C115.865 410.345 115.594 412.084 115.052 413.679C114.509 415.258 113.728 416.63 112.707 417.794C111.702 418.958 110.49 419.868 109.07 420.521C107.651 421.16 106.072 421.479 104.333 421.479C102.578 421.479 100.991 421.16 99.5718 420.521C98.1522 419.868 96.932 418.958 95.9111 417.794C94.8903 416.63 94.1087 415.258 93.5664 413.679C93.0241 412.084 92.7529 410.345 92.7529 408.463ZM95.6001 407.673V408.463C95.6001 409.882 95.7915 411.23 96.1743 412.506C96.5571 413.766 97.1154 414.891 97.8491 415.88C98.5828 416.853 99.492 417.618 100.577 418.177C101.661 418.735 102.913 419.014 104.333 419.014C105.737 419.014 106.973 418.735 108.042 418.177C109.126 417.618 110.035 416.853 110.769 415.88C111.503 414.891 112.053 413.766 112.42 412.506C112.803 411.23 112.994 409.882 112.994 408.463V407.673C112.994 406.27 112.803 404.938 112.42 403.678C112.053 402.418 111.495 401.293 110.745 400.304C110.011 399.315 109.102 398.534 108.018 397.959C106.933 397.385 105.689 397.098 104.285 397.098C102.882 397.098 101.637 397.385 100.553 397.959C99.484 398.534 98.5749 399.315 97.8252 400.304C97.0915 401.293 96.5332 402.418 96.1504 403.678C95.7835 404.938 95.6001 406.27 95.6001 407.673ZM124.502 400.472V421H121.631V395.112H124.383L124.502 400.472ZM123.976 406.453L122.588 405.735C122.684 404.204 122.971 402.769 123.45 401.429C123.944 400.089 124.63 398.909 125.507 397.888C126.385 396.867 127.437 396.069 128.666 395.495C129.894 394.921 131.289 394.634 132.853 394.634C134.113 394.634 135.253 394.809 136.274 395.16C137.311 395.495 138.188 396.029 138.906 396.763C139.639 397.481 140.206 398.422 140.604 399.586C141.003 400.751 141.203 402.146 141.203 403.773V421H138.355V403.869C138.355 402.146 138.084 400.799 137.542 399.826C137.016 398.853 136.274 398.159 135.317 397.744C134.376 397.329 133.283 397.122 132.039 397.122C130.572 397.122 129.327 397.425 128.307 398.031C127.302 398.621 126.48 399.395 125.842 400.352C125.22 401.293 124.758 402.306 124.455 403.391C124.152 404.459 123.992 405.48 123.976 406.453ZM141.179 404.204L139.265 404.252C139.344 402.992 139.632 401.788 140.126 400.639C140.636 399.491 141.33 398.47 142.208 397.577C143.085 396.667 144.13 395.95 145.342 395.423C146.57 394.897 147.95 394.634 149.481 394.634C150.821 394.634 152.017 394.817 153.07 395.184C154.123 395.535 155.008 396.101 155.726 396.883C156.459 397.648 157.018 398.629 157.4 399.826C157.783 401.022 157.975 402.458 157.975 404.132V421H155.104V404.108C155.104 402.274 154.832 400.854 154.29 399.85C153.764 398.829 153.03 398.119 152.089 397.72C151.148 397.321 150.047 397.122 148.787 397.122C147.543 397.138 146.45 397.369 145.509 397.816C144.568 398.247 143.779 398.821 143.141 399.539C142.519 400.24 142.04 400.998 141.705 401.812C141.386 402.625 141.211 403.423 141.179 404.204ZM180.991 416.358V403.008C180.991 401.78 180.736 400.719 180.226 399.826C179.715 398.932 178.965 398.247 177.977 397.768C176.988 397.29 175.767 397.05 174.316 397.05C172.976 397.05 171.78 397.29 170.727 397.768C169.69 398.231 168.869 398.861 168.263 399.658C167.673 400.44 167.377 401.309 167.377 402.266L164.506 402.242C164.506 401.269 164.746 400.328 165.224 399.419C165.703 398.51 166.381 397.696 167.258 396.979C168.135 396.261 169.18 395.694 170.392 395.28C171.62 394.849 172.968 394.634 174.436 394.634C176.286 394.634 177.913 394.945 179.316 395.567C180.736 396.189 181.845 397.122 182.642 398.366C183.44 399.61 183.838 401.174 183.838 403.056V415.569C183.838 416.462 183.902 417.387 184.03 418.344C184.173 419.301 184.373 420.091 184.628 420.713V421H181.589C181.398 420.426 181.246 419.708 181.135 418.847C181.039 417.969 180.991 417.14 180.991 416.358ZM181.661 405.927L181.709 408.128H176.086C174.619 408.128 173.303 408.264 172.139 408.535C170.99 408.79 170.017 409.173 169.22 409.683C168.422 410.178 167.808 410.776 167.377 411.478C166.963 412.179 166.755 412.977 166.755 413.87C166.755 414.795 166.987 415.641 167.449 416.406C167.928 417.172 168.598 417.786 169.459 418.249C170.336 418.695 171.373 418.918 172.569 418.918C174.164 418.918 175.568 418.623 176.78 418.033C178.008 417.443 179.021 416.669 179.819 415.712C180.616 414.755 181.151 413.711 181.422 412.578L182.666 414.229C182.459 415.027 182.076 415.848 181.518 416.693C180.975 417.523 180.265 418.304 179.388 419.038C178.511 419.756 177.474 420.346 176.278 420.809C175.097 421.255 173.758 421.479 172.258 421.479C170.568 421.479 169.092 421.16 167.832 420.521C166.588 419.883 165.615 419.014 164.913 417.914C164.227 416.797 163.884 415.537 163.884 414.133C163.884 412.857 164.155 411.717 164.698 410.712C165.24 409.691 166.022 408.83 167.042 408.128C168.079 407.41 169.323 406.868 170.775 406.501C172.242 406.118 173.885 405.927 175.704 405.927H181.661ZM201.304 395.112V397.457H188.336V395.112H201.304ZM193.098 388.461H195.945V414.708C195.945 415.904 196.104 416.805 196.423 417.411C196.742 418.017 197.157 418.424 197.667 418.631C198.178 418.839 198.728 418.942 199.318 418.942C199.749 418.942 200.164 418.918 200.562 418.871C200.961 418.807 201.32 418.743 201.639 418.679L201.759 421.096C201.408 421.207 200.953 421.295 200.395 421.359C199.837 421.439 199.278 421.479 198.72 421.479C197.62 421.479 196.647 421.279 195.801 420.88C194.956 420.466 194.294 419.764 193.815 418.775C193.337 417.77 193.098 416.406 193.098 414.684V388.461ZM217.311 421.479C215.62 421.479 214.065 421.167 212.645 420.545C211.241 419.923 210.013 419.046 208.96 417.914C207.924 416.781 207.118 415.441 206.544 413.894C205.986 412.331 205.707 410.624 205.707 408.774V407.745C205.707 405.751 206.002 403.949 206.592 402.338C207.182 400.727 207.995 399.347 209.032 398.199C210.069 397.05 211.249 396.173 212.573 395.567C213.913 394.945 215.317 394.634 216.784 394.634C218.427 394.634 219.887 394.929 221.163 395.519C222.439 396.093 223.507 396.915 224.369 397.983C225.246 399.036 225.908 400.288 226.354 401.74C226.801 403.175 227.024 404.762 227.024 406.501V408.248H207.429V405.807H224.177V405.472C224.145 404.021 223.85 402.665 223.292 401.405C222.75 400.129 221.936 399.092 220.852 398.294C219.767 397.497 218.411 397.098 216.784 397.098C215.572 397.098 214.455 397.353 213.435 397.864C212.43 398.374 211.56 399.108 210.827 400.065C210.109 401.006 209.551 402.131 209.152 403.438C208.769 404.73 208.578 406.166 208.578 407.745V408.774C208.578 410.209 208.785 411.549 209.2 412.793C209.63 414.022 210.236 415.106 211.018 416.047C211.816 416.988 212.757 417.722 213.841 418.249C214.926 418.775 216.122 419.038 217.43 419.038C218.961 419.038 220.317 418.759 221.498 418.201C222.678 417.626 223.739 416.725 224.68 415.497L226.474 416.885C225.916 417.714 225.214 418.48 224.369 419.182C223.539 419.883 222.542 420.442 221.378 420.856C220.214 421.271 218.858 421.479 217.311 421.479ZM252.314 418.416L260.377 395.112H263.463L252.505 425.163C252.282 425.753 251.995 426.407 251.644 427.125C251.309 427.843 250.862 428.529 250.304 429.183C249.762 429.853 249.076 430.395 248.247 430.81C247.433 431.24 246.436 431.456 245.256 431.456C244.953 431.456 244.562 431.416 244.083 431.336C243.621 431.272 243.286 431.208 243.079 431.145L243.055 428.728C243.23 428.776 243.485 428.816 243.82 428.848C244.155 428.88 244.387 428.896 244.514 428.896C245.551 428.896 246.42 428.72 247.122 428.369C247.84 428.018 248.438 427.492 248.917 426.79C249.395 426.104 249.818 425.243 250.185 424.206L252.314 418.416ZM244.777 395.112L253.032 417.339L253.797 420.33L251.716 421.502L241.667 395.112H244.777ZM265.976 408.463V407.673C265.976 405.791 266.247 404.053 266.789 402.458C267.331 400.862 268.105 399.483 269.11 398.318C270.131 397.154 271.351 396.253 272.771 395.615C274.19 394.961 275.769 394.634 277.508 394.634C279.262 394.634 280.849 394.961 282.269 395.615C283.689 396.253 284.909 397.154 285.93 398.318C286.951 399.483 287.732 400.862 288.274 402.458C288.817 404.053 289.088 405.791 289.088 407.673V408.463C289.088 410.345 288.817 412.084 288.274 413.679C287.732 415.258 286.951 416.63 285.93 417.794C284.925 418.958 283.713 419.868 282.293 420.521C280.873 421.16 279.294 421.479 277.556 421.479C275.801 421.479 274.214 421.16 272.794 420.521C271.375 419.868 270.155 418.958 269.134 417.794C268.113 416.63 267.331 415.258 266.789 413.679C266.247 412.084 265.976 410.345 265.976 408.463ZM268.823 407.673V408.463C268.823 409.882 269.014 411.23 269.397 412.506C269.78 413.766 270.338 414.891 271.072 415.88C271.806 416.853 272.715 417.618 273.799 418.177C274.884 418.735 276.136 419.014 277.556 419.014C278.959 419.014 280.195 418.735 281.264 418.177C282.349 417.618 283.258 416.853 283.992 415.88C284.725 414.891 285.276 413.766 285.643 412.506C286.025 411.23 286.217 409.882 286.217 408.463V407.673C286.217 406.27 286.025 404.938 285.643 403.678C285.276 402.418 284.717 401.293 283.968 400.304C283.234 399.315 282.325 398.534 281.24 397.959C280.156 397.385 278.911 397.098 277.508 397.098C276.104 397.098 274.86 397.385 273.775 397.959C272.707 398.534 271.798 399.315 271.048 400.304C270.314 401.293 269.756 402.418 269.373 403.678C269.006 404.938 268.823 406.27 268.823 407.673ZM311.602 415.019V395.112H314.473V421H311.722L311.602 415.019ZM312.128 410.233L313.612 410.186C313.612 411.812 313.42 413.312 313.038 414.684C312.655 416.055 312.057 417.252 311.243 418.272C310.43 419.293 309.377 420.083 308.085 420.641C306.793 421.199 305.238 421.479 303.419 421.479C302.159 421.479 301.003 421.303 299.95 420.952C298.913 420.585 298.02 420.011 297.271 419.229C296.521 418.448 295.939 417.435 295.524 416.191C295.125 414.947 294.926 413.439 294.926 411.669V395.112H297.773V411.717C297.773 413.104 297.924 414.261 298.228 415.186C298.547 416.111 298.977 416.853 299.52 417.411C300.078 417.969 300.716 418.368 301.434 418.607C302.151 418.847 302.925 418.966 303.754 418.966C305.86 418.966 307.519 418.56 308.731 417.746C309.959 416.933 310.828 415.864 311.339 414.54C311.865 413.2 312.128 411.765 312.128 410.233ZM324.809 399.395V421H321.962V395.112H324.737L324.809 399.395ZM333.973 394.921L333.901 397.553C333.582 397.505 333.271 397.465 332.968 397.433C332.665 397.401 332.338 397.385 331.987 397.385C330.743 397.385 329.65 397.617 328.709 398.079C327.784 398.526 327.002 399.156 326.364 399.969C325.726 400.767 325.24 401.708 324.905 402.792C324.57 403.861 324.378 405.01 324.331 406.238L323.278 406.645C323.278 404.954 323.453 403.383 323.804 401.931C324.155 400.48 324.689 399.212 325.407 398.127C326.141 397.026 327.058 396.173 328.159 395.567C329.275 394.945 330.583 394.634 332.083 394.634C332.449 394.634 332.808 394.666 333.159 394.729C333.526 394.777 333.797 394.841 333.973 394.921ZM365.938 414.396C365.938 413.695 365.762 413.001 365.411 412.315C365.06 411.629 364.382 410.999 363.377 410.425C362.389 409.851 360.929 409.364 358.999 408.965C357.563 408.646 356.279 408.287 355.147 407.889C354.03 407.49 353.089 407.011 352.324 406.453C351.558 405.895 350.976 405.225 350.577 404.443C350.178 403.662 349.979 402.737 349.979 401.668C349.979 400.711 350.186 399.81 350.601 398.964C351.032 398.103 351.638 397.353 352.419 396.715C353.217 396.061 354.174 395.551 355.291 395.184C356.423 394.817 357.691 394.634 359.095 394.634C361.089 394.634 362.795 394.977 364.215 395.663C365.65 396.333 366.743 397.25 367.493 398.414C368.258 399.578 368.641 400.894 368.641 402.362H365.794C365.794 401.469 365.531 400.623 365.004 399.826C364.494 399.028 363.736 398.374 362.731 397.864C361.743 397.353 360.53 397.098 359.095 397.098C357.611 397.098 356.407 397.321 355.482 397.768C354.557 398.215 353.879 398.781 353.448 399.467C353.034 400.153 352.826 400.862 352.826 401.596C352.826 402.17 352.914 402.697 353.089 403.175C353.281 403.638 353.616 404.069 354.094 404.467C354.589 404.866 355.291 405.241 356.2 405.592C357.109 405.943 358.289 406.286 359.741 406.621C361.83 407.083 363.537 407.649 364.861 408.319C366.201 408.973 367.19 409.787 367.828 410.76C368.466 411.717 368.785 412.881 368.785 414.253C368.785 415.322 368.561 416.303 368.115 417.196C367.668 418.073 367.022 418.831 366.177 419.469C365.347 420.107 364.342 420.601 363.162 420.952C361.998 421.303 360.69 421.479 359.238 421.479C357.053 421.479 355.203 421.12 353.688 420.402C352.188 419.668 351.048 418.711 350.266 417.531C349.5 416.334 349.118 415.066 349.118 413.727H351.965C352.061 415.066 352.483 416.127 353.233 416.909C353.983 417.674 354.9 418.217 355.984 418.536C357.085 418.855 358.17 419.014 359.238 419.014C360.706 419.014 361.934 418.799 362.923 418.368C363.912 417.938 364.661 417.371 365.172 416.669C365.682 415.968 365.938 415.21 365.938 414.396ZM391.849 415.019V395.112H394.72V421H391.969L391.849 415.019ZM392.375 410.233L393.859 410.186C393.859 411.812 393.667 413.312 393.285 414.684C392.902 416.055 392.304 417.252 391.49 418.272C390.677 419.293 389.624 420.083 388.332 420.641C387.04 421.199 385.485 421.479 383.667 421.479C382.406 421.479 381.25 421.303 380.197 420.952C379.16 420.585 378.267 420.011 377.518 419.229C376.768 418.448 376.186 417.435 375.771 416.191C375.372 414.947 375.173 413.439 375.173 411.669V395.112H378.02V411.717C378.02 413.104 378.172 414.261 378.475 415.186C378.794 416.111 379.224 416.853 379.767 417.411C380.325 417.969 380.963 418.368 381.681 418.607C382.398 418.847 383.172 418.966 384.001 418.966C386.107 418.966 387.766 418.56 388.978 417.746C390.206 416.933 391.076 415.864 391.586 414.54C392.112 413.2 392.375 411.765 392.375 410.233ZM411.755 419.014C412.968 419.014 414.1 418.791 415.153 418.344C416.222 417.882 417.099 417.204 417.785 416.311C418.486 415.401 418.885 414.293 418.981 412.985H421.708C421.629 414.628 421.126 416.095 420.201 417.387C419.292 418.663 418.096 419.668 416.612 420.402C415.145 421.12 413.526 421.479 411.755 421.479C409.953 421.479 408.358 421.152 406.97 420.498C405.598 419.844 404.45 418.934 403.525 417.77C402.6 416.59 401.898 415.218 401.419 413.655C400.957 412.076 400.726 410.377 400.726 408.559V407.554C400.726 405.735 400.957 404.045 401.419 402.481C401.898 400.902 402.6 399.531 403.525 398.366C404.45 397.186 405.598 396.269 406.97 395.615C408.342 394.961 409.929 394.634 411.731 394.634C413.582 394.634 415.241 395.009 416.708 395.758C418.191 396.508 419.372 397.569 420.249 398.94C421.142 400.312 421.629 401.939 421.708 403.821H418.981C418.901 402.434 418.534 401.237 417.88 400.232C417.226 399.228 416.365 398.454 415.296 397.912C414.228 397.369 413.039 397.098 411.731 397.098C410.264 397.098 409.012 397.385 407.975 397.959C406.938 398.518 406.093 399.291 405.439 400.28C404.801 401.253 404.33 402.37 404.027 403.63C403.724 404.874 403.573 406.182 403.573 407.554V408.559C403.573 409.946 403.716 411.27 404.003 412.53C404.306 413.774 404.777 414.883 405.415 415.856C406.069 416.829 406.914 417.603 407.951 418.177C409.004 418.735 410.272 419.014 411.755 419.014ZM437.021 419.014C438.233 419.014 439.366 418.791 440.418 418.344C441.487 417.882 442.364 417.204 443.05 416.311C443.752 415.401 444.151 414.293 444.247 412.985H446.974C446.894 414.628 446.392 416.095 445.467 417.387C444.558 418.663 443.361 419.668 441.878 420.402C440.41 421.12 438.792 421.479 437.021 421.479C435.219 421.479 433.624 421.152 432.236 420.498C430.864 419.844 429.716 418.934 428.791 417.77C427.865 416.59 427.164 415.218 426.685 413.655C426.222 412.076 425.991 410.377 425.991 408.559V407.554C425.991 405.735 426.222 404.045 426.685 402.481C427.164 400.902 427.865 399.531 428.791 398.366C429.716 397.186 430.864 396.269 432.236 395.615C433.608 394.961 435.195 394.634 436.997 394.634C438.847 394.634 440.506 395.009 441.974 395.758C443.457 396.508 444.637 397.569 445.515 398.94C446.408 400.312 446.894 401.939 446.974 403.821H444.247C444.167 402.434 443.8 401.237 443.146 400.232C442.492 399.228 441.631 398.454 440.562 397.912C439.493 397.369 438.305 397.098 436.997 397.098C435.53 397.098 434.278 397.385 433.241 397.959C432.204 398.518 431.359 399.291 430.705 400.28C430.067 401.253 429.596 402.37 429.293 403.63C428.99 404.874 428.838 406.182 428.838 407.554V408.559C428.838 409.946 428.982 411.27 429.269 412.53C429.572 413.774 430.043 414.883 430.681 415.856C431.335 416.829 432.18 417.603 433.217 418.177C434.27 418.735 435.538 419.014 437.021 419.014ZM462.741 421.479C461.05 421.479 459.495 421.167 458.076 420.545C456.672 419.923 455.444 419.046 454.391 417.914C453.354 416.781 452.549 415.441 451.975 413.894C451.416 412.331 451.137 410.624 451.137 408.774V407.745C451.137 405.751 451.432 403.949 452.022 402.338C452.613 400.727 453.426 399.347 454.463 398.199C455.5 397.05 456.68 396.173 458.004 395.567C459.344 394.945 460.747 394.634 462.215 394.634C463.858 394.634 465.317 394.929 466.593 395.519C467.869 396.093 468.938 396.915 469.799 397.983C470.677 399.036 471.339 400.288 471.785 401.74C472.232 403.175 472.455 404.762 472.455 406.501V408.248H452.86V405.807H469.608V405.472C469.576 404.021 469.281 402.665 468.723 401.405C468.18 400.129 467.367 399.092 466.282 398.294C465.198 397.497 463.842 397.098 462.215 397.098C461.003 397.098 459.886 397.353 458.865 397.864C457.86 398.374 456.991 399.108 456.257 400.065C455.54 401.006 454.981 402.131 454.583 403.438C454.2 404.73 454.008 406.166 454.008 407.745V408.774C454.008 410.209 454.216 411.549 454.63 412.793C455.061 414.022 455.667 415.106 456.449 416.047C457.246 416.988 458.187 417.722 459.272 418.249C460.357 418.775 461.553 419.038 462.861 419.038C464.392 419.038 465.748 418.759 466.928 418.201C468.109 417.626 469.169 416.725 470.11 415.497L471.905 416.885C471.347 417.714 470.645 418.48 469.799 419.182C468.97 419.883 467.973 420.442 466.809 420.856C465.644 421.271 464.288 421.479 462.741 421.479ZM493.605 414.396C493.605 413.695 493.43 413.001 493.079 412.315C492.728 411.629 492.05 410.999 491.045 410.425C490.056 409.851 488.597 409.364 486.667 408.965C485.231 408.646 483.947 408.287 482.815 407.889C481.698 407.49 480.757 407.011 479.992 406.453C479.226 405.895 478.644 405.225 478.245 404.443C477.846 403.662 477.647 402.737 477.647 401.668C477.647 400.711 477.854 399.81 478.269 398.964C478.7 398.103 479.306 397.353 480.087 396.715C480.885 396.061 481.842 395.551 482.958 395.184C484.091 394.817 485.359 394.634 486.763 394.634C488.757 394.634 490.463 394.977 491.883 395.663C493.318 396.333 494.411 397.25 495.161 398.414C495.926 399.578 496.309 400.894 496.309 402.362H493.462C493.462 401.469 493.199 400.623 492.672 399.826C492.162 399.028 491.404 398.374 490.399 397.864C489.41 397.353 488.198 397.098 486.763 397.098C485.279 397.098 484.075 397.321 483.15 397.768C482.225 398.215 481.547 398.781 481.116 399.467C480.701 400.153 480.494 400.862 480.494 401.596C480.494 402.17 480.582 402.697 480.757 403.175C480.949 403.638 481.284 404.069 481.762 404.467C482.257 404.866 482.958 405.241 483.868 405.592C484.777 405.943 485.957 406.286 487.409 406.621C489.498 407.083 491.205 407.649 492.529 408.319C493.869 408.973 494.858 409.787 495.496 410.76C496.134 411.717 496.453 412.881 496.453 414.253C496.453 415.322 496.229 416.303 495.783 417.196C495.336 418.073 494.69 418.831 493.845 419.469C493.015 420.107 492.01 420.601 490.83 420.952C489.666 421.303 488.358 421.479 486.906 421.479C484.721 421.479 482.871 421.12 481.355 420.402C479.856 419.668 478.716 418.711 477.934 417.531C477.168 416.334 476.786 415.066 476.786 413.727H479.633C479.729 415.066 480.151 416.127 480.901 416.909C481.651 417.674 482.568 418.217 483.652 418.536C484.753 418.855 485.838 419.014 486.906 419.014C488.374 419.014 489.602 418.799 490.591 418.368C491.58 417.938 492.329 417.371 492.84 416.669C493.35 415.968 493.605 415.21 493.605 414.396ZM518.44 414.396C518.44 413.695 518.265 413.001 517.914 412.315C517.563 411.629 516.885 410.999 515.88 410.425C514.891 409.851 513.432 409.364 511.502 408.965C510.066 408.646 508.782 408.287 507.65 407.889C506.533 407.49 505.592 407.011 504.827 406.453C504.061 405.895 503.479 405.225 503.08 404.443C502.681 403.662 502.482 402.737 502.482 401.668C502.482 400.711 502.689 399.81 503.104 398.964C503.535 398.103 504.141 397.353 504.922 396.715C505.72 396.061 506.677 395.551 507.793 395.184C508.926 394.817 510.194 394.634 511.598 394.634C513.591 394.634 515.298 394.977 516.718 395.663C518.153 396.333 519.246 397.25 519.996 398.414C520.761 399.578 521.144 400.894 521.144 402.362H518.297C518.297 401.469 518.034 400.623 517.507 399.826C516.997 399.028 516.239 398.374 515.234 397.864C514.245 397.353 513.033 397.098 511.598 397.098C510.114 397.098 508.91 397.321 507.985 397.768C507.06 398.215 506.382 398.781 505.951 399.467C505.536 400.153 505.329 400.862 505.329 401.596C505.329 402.17 505.417 402.697 505.592 403.175C505.784 403.638 506.119 404.069 506.597 404.467C507.092 404.866 507.793 405.241 508.703 405.592C509.612 405.943 510.792 406.286 512.244 406.621C514.333 407.083 516.04 407.649 517.364 408.319C518.704 408.973 519.693 409.787 520.331 410.76C520.969 411.717 521.288 412.881 521.288 414.253C521.288 415.322 521.064 416.303 520.618 417.196C520.171 418.073 519.525 418.831 518.68 419.469C517.85 420.107 516.845 420.601 515.665 420.952C514.501 421.303 513.193 421.479 511.741 421.479C509.556 421.479 507.706 421.12 506.19 420.402C504.691 419.668 503.551 418.711 502.769 417.531C502.003 416.334 501.621 415.066 501.621 413.727H504.468C504.563 415.066 504.986 416.127 505.736 416.909C506.486 417.674 507.403 418.217 508.487 418.536C509.588 418.855 510.673 419.014 511.741 419.014C513.209 419.014 514.437 418.799 515.426 418.368C516.415 417.938 517.164 417.371 517.675 416.669C518.185 415.968 518.44 415.21 518.44 414.396Z" fill="white"/>
<path d="M52.43 347V284.18H82.13C85.07 284.18 87.71 284.69 90.05 285.71C92.39 286.67 94.37 288.02 95.99 289.76C97.67 291.5 98.96 293.63 99.86 296.15C100.76 298.61 101.21 301.31 101.21 304.25C101.21 307.25 100.76 309.98 99.86 312.44C98.96 314.9 97.67 317 95.99 318.74C94.37 320.48 92.39 321.86 90.05 322.88C87.71 323.84 85.07 324.32 82.13 324.32H66.11V347H52.43ZM66.11 312.44H80.51C82.55 312.44 84.14 311.93 85.28 310.91C86.48 309.83 87.08 308.27 87.08 306.23V302.27C87.08 300.23 86.48 298.7 85.28 297.68C84.14 296.6 82.55 296.06 80.51 296.06H66.11V312.44ZM128.725 348.08C125.125 348.08 121.915 347.51 119.095 346.37C116.275 345.17 113.875 343.52 111.895 341.42C109.975 339.26 108.505 336.65 107.485 333.59C106.525 330.53 106.045 327.11 106.045 323.33C106.045 319.61 106.525 316.25 107.485 313.25C108.445 310.19 109.855 307.58 111.715 305.42C113.635 303.26 115.975 301.61 118.735 300.47C121.495 299.27 124.645 298.67 128.185 298.67C132.085 298.67 135.415 299.33 138.175 300.65C140.995 301.97 143.275 303.74 145.015 305.96C146.815 308.18 148.105 310.76 148.885 313.7C149.725 316.58 150.145 319.61 150.145 322.79V326.75H119.815V327.47C119.815 330.59 120.655 333.08 122.335 334.94C124.015 336.74 126.655 337.64 130.255 337.64C133.015 337.64 135.265 337.1 137.005 336.02C138.745 334.88 140.365 333.53 141.865 331.97L148.525 340.25C146.425 342.71 143.665 344.63 140.245 346.01C136.885 347.39 133.045 348.08 128.725 348.08ZM128.455 308.48C125.755 308.48 123.625 309.38 122.065 311.18C120.565 312.92 119.815 315.26 119.815 318.2V318.92H136.375V318.11C136.375 315.23 135.715 312.92 134.395 311.18C133.135 309.38 131.155 308.48 128.455 308.48ZM159.552 347V299.75H172.872V310.01H173.322C173.562 308.69 173.982 307.43 174.582 306.23C175.182 304.97 175.962 303.86 176.922 302.9C177.942 301.94 179.142 301.19 180.522 300.65C181.902 300.05 183.522 299.75 185.382 299.75H187.722V312.17H184.392C180.492 312.17 177.582 312.68 175.662 313.7C173.802 314.72 172.872 316.61 172.872 319.37V347H159.552ZM211.959 348.08C207.399 348.08 203.559 347.36 200.439 345.92C197.319 344.42 194.529 342.32 192.069 339.62L199.899 331.7C201.579 333.56 203.439 335.03 205.479 336.11C207.519 337.19 209.829 337.73 212.409 337.73C215.049 337.73 216.879 337.34 217.899 336.56C218.919 335.72 219.429 334.61 219.429 333.23C219.429 331.01 217.839 329.69 214.659 329.27L209.529 328.64C198.909 327.32 193.599 322.46 193.599 314.06C193.599 311.78 194.019 309.71 194.859 307.85C195.759 305.93 196.989 304.31 198.549 302.99C200.169 301.61 202.089 300.56 204.309 299.84C206.589 299.06 209.139 298.67 211.959 298.67C214.419 298.67 216.579 298.85 218.439 299.21C220.359 299.51 222.039 299.99 223.479 300.65C224.979 301.25 226.329 302.03 227.529 302.99C228.789 303.89 230.019 304.91 231.219 306.05L223.569 313.88C222.069 312.38 220.359 311.21 218.439 310.37C216.579 309.47 214.659 309.02 212.679 309.02C210.399 309.02 208.779 309.38 207.819 310.1C206.859 310.82 206.379 311.78 206.379 312.98C206.379 314.24 206.709 315.23 207.369 315.95C208.089 316.61 209.409 317.09 211.329 317.39L216.639 318.11C227.019 319.49 232.209 324.23 232.209 332.33C232.209 334.61 231.729 336.71 230.769 338.63C229.809 340.55 228.429 342.23 226.629 343.67C224.889 345.05 222.759 346.13 220.239 346.91C217.779 347.69 215.019 348.08 211.959 348.08ZM241.29 299.75H254.61V307.67H255.06C255.72 305.03 257.22 302.87 259.56 301.19C261.96 299.51 264.69 298.67 267.75 298.67C273.75 298.67 278.28 300.77 281.34 304.97C284.4 309.17 285.93 315.29 285.93 323.33C285.93 331.37 284.4 337.52 281.34 341.78C278.28 345.98 273.75 348.08 267.75 348.08C266.19 348.08 264.72 347.84 263.34 347.36C261.96 346.94 260.7 346.34 259.56 345.56C258.48 344.72 257.55 343.76 256.77 342.68C255.99 341.54 255.42 340.34 255.06 339.08H254.61V365H241.29V299.75ZM263.34 337.28C265.86 337.28 267.93 336.41 269.55 334.67C271.23 332.87 272.07 330.47 272.07 327.47V319.28C272.07 316.28 271.23 313.91 269.55 312.17C267.93 310.37 265.86 309.47 263.34 309.47C260.82 309.47 258.72 310.1 257.04 311.36C255.42 312.56 254.61 314.24 254.61 316.4V330.35C254.61 332.51 255.42 334.22 257.04 335.48C258.72 336.68 260.82 337.28 263.34 337.28ZM315.756 348.08C312.156 348.08 308.946 347.51 306.126 346.37C303.306 345.17 300.906 343.52 298.926 341.42C297.006 339.26 295.536 336.65 294.516 333.59C293.556 330.53 293.076 327.11 293.076 323.33C293.076 319.61 293.556 316.25 294.516 313.25C295.476 310.19 296.886 307.58 298.746 305.42C300.666 303.26 303.006 301.61 305.766 300.47C308.526 299.27 311.676 298.67 315.216 298.67C319.116 298.67 322.446 299.33 325.206 300.65C328.026 301.97 330.306 303.74 332.046 305.96C333.846 308.18 335.136 310.76 335.916 313.7C336.756 316.58 337.176 319.61 337.176 322.79V326.75H306.846V327.47C306.846 330.59 307.686 333.08 309.366 334.94C311.046 336.74 313.686 337.64 317.286 337.64C320.046 337.64 322.296 337.1 324.036 336.02C325.776 334.88 327.396 333.53 328.896 331.97L335.556 340.25C333.456 342.71 330.696 344.63 327.276 346.01C323.916 347.39 320.076 348.08 315.756 348.08ZM315.486 308.48C312.786 308.48 310.656 309.38 309.096 311.18C307.596 312.92 306.846 315.26 306.846 318.2V318.92H323.406V318.11C323.406 315.23 322.746 312.92 321.426 311.18C320.166 309.38 318.186 308.48 315.486 308.48ZM365.663 348.08C362.123 348.08 358.973 347.51 356.213 346.37C353.453 345.17 351.143 343.52 349.283 341.42C347.423 339.26 346.013 336.65 345.053 333.59C344.093 330.53 343.613 327.11 343.613 323.33C343.613 319.55 344.093 316.16 345.053 313.16C346.013 310.1 347.423 307.49 349.283 305.33C351.143 303.17 353.453 301.52 356.213 300.38C358.973 299.24 362.123 298.67 365.663 298.67C370.463 298.67 374.453 299.75 377.633 301.91C380.873 304.07 383.183 307.1 384.563 311L373.763 315.68C373.343 313.88 372.473 312.35 371.153 311.09C369.833 309.83 368.003 309.2 365.663 309.2C362.963 309.2 360.923 310.1 359.543 311.9C358.163 313.64 357.473 316.01 357.473 319.01V327.83C357.473 330.83 358.163 333.2 359.543 334.94C360.923 336.68 362.963 337.55 365.663 337.55C368.063 337.55 369.953 336.92 371.333 335.66C372.773 334.34 373.823 332.63 374.483 330.53L384.833 335.03C383.273 339.53 380.843 342.83 377.543 344.93C374.303 347.03 370.343 348.08 365.663 348.08ZM409.637 347C405.017 347 401.507 345.83 399.107 343.49C396.767 341.15 395.597 337.73 395.597 333.23V310.1H388.937V299.75H392.267C394.067 299.75 395.297 299.33 395.957 298.49C396.617 297.59 396.947 296.33 396.947 294.71V286.97H408.917V299.75H418.277V310.1H408.917V336.65H417.557V347H409.637ZM434.19 294.71C431.49 294.71 429.51 294.11 428.25 292.91C427.05 291.65 426.45 290.06 426.45 288.14V286.16C426.45 284.24 427.05 282.68 428.25 281.48C429.51 280.22 431.49 279.59 434.19 279.59C436.89 279.59 438.84 280.22 440.04 281.48C441.3 282.68 441.93 284.24 441.93 286.16V288.14C441.93 290.06 441.3 291.65 440.04 292.91C438.84 294.11 436.89 294.71 434.19 294.71ZM427.53 299.75H440.85V347H427.53V299.75ZM463.362 347L447.882 299.75H461.022L466.872 318.83L471.282 335.93H472.002L476.412 318.83L482.082 299.75H494.682L479.202 347H463.362Z" fill="white"/>
</svg>
