<svg width="26" height="26" viewBox="0 0 26 26" fill="none" xmlns="http://www.w3.org/2000/svg">
<path fill-rule="evenodd" clip-rule="evenodd" d="M1.82291 6.16152C3.17026 4.74328 3.64737 4.34546 4.22097 4.16171C4.61854 4.05731 5.03561 4.05119 5.43608 4.14388C5.96323 4.29729 6.10082 4.41325 7.83056 6.13119C9.34945 7.6404 9.49956 7.80453 9.64608 8.09353C9.92951 8.61369 9.97508 9.23044 9.77117 9.78649C9.62107 10.2057 9.39949 10.484 8.47922 11.4081L7.87881 12.0093C7.72085 12.1692 7.6834 12.4123 7.78589 12.6123C9.11872 14.8825 11.0093 16.776 13.2789 18.1139C13.5407 18.254 13.8632 18.2086 14.0759 18.0015L14.6531 17.4343C15.0097 17.0689 15.3874 16.7246 15.7842 16.4031C16.4064 16.0188 17.1831 15.9817 17.8391 16.305C18.159 16.4549 18.2662 16.553 19.8334 18.1122C21.4416 19.7177 21.4934 19.7694 21.6739 20.1387C22.0109 20.7504 22.0075 21.4924 21.665 22.101C21.4863 22.4436 21.3862 22.5684 20.4784 23.4943C19.9299 24.0545 19.4063 24.5647 19.3312 24.6396C18.5815 25.2582 17.6205 25.562 16.6508 25.487C14.8768 25.3249 13.1598 24.7769 11.6206 23.8814C8.2091 22.0769 5.30501 19.4476 3.17383 16.2337C2.70779 15.5618 2.29323 14.8557 1.9337 14.1215C0.975744 12.482 0.480503 10.6141 0.500587 8.71612C0.572644 7.71982 1.05056 6.79653 1.82291 6.16152Z" stroke="#33CCFF" stroke-linecap="round" stroke-linejoin="round"/>
<path d="M16.9117 0.0293103C16.6518 -0.0638462 16.3655 0.0713705 16.2724 0.331325C16.1792 0.59128 16.3144 0.877533 16.5744 0.97069L16.7431 0.5L16.9117 0.0293103ZM25.0324 9.274C25.1302 9.53225 25.4188 9.66232 25.677 9.56453C25.9353 9.46674 26.0654 9.17812 25.9676 8.91987L25.5 9.09694L25.0324 9.274ZM14.8927 4.03023C14.6233 3.96948 14.3557 4.1386 14.295 4.40798C14.2342 4.67736 14.4033 4.94498 14.6727 5.00573L14.7827 4.51798L14.8927 4.03023ZM21.1057 11.3235C21.1711 11.5917 21.4416 11.7562 21.7099 11.6908C21.9782 11.6254 22.1427 11.3549 22.0773 11.0866L21.5915 11.205L21.1057 11.3235ZM16.7431 0.5L16.5744 0.97069C20.4756 2.36871 23.5668 5.40358 25.0324 9.274L25.5 9.09694L25.9676 8.91987C24.3981 4.77523 21.0882 1.52597 16.9117 0.0293103L16.7431 0.5ZM14.7827 4.51798L14.6727 5.00573C17.8447 5.72113 20.3367 8.16894 21.1057 11.3235L21.5915 11.205L22.0773 11.0866C21.2182 7.56258 18.4346 4.82905 14.8927 4.03023L14.7827 4.51798Z" fill="#33CCFF"/>
</svg>
