<svg width="27" height="32" viewBox="0 0 27 32" fill="none" xmlns="http://www.w3.org/2000/svg">
<path d="M13.5752 0.5C17.1032 0.5 19.9639 3.36026 19.9639 6.88867C19.9639 10.4171 17.1032 13.2773 13.5752 13.2773C10.0474 13.2772 7.1875 10.417 7.1875 6.88867C7.18751 3.36038 10.0474 0.500193 13.5752 0.5Z" stroke="white" stroke-linecap="round"/>
<path d="M13.5751 17.2266L13.5751 16.7266L13.5751 16.7266L13.5751 17.2266ZM26.1474 30.0107L26.6453 29.9659L26.6453 29.9659L26.1474 30.0107ZM25.204 31.0039L25.204 31.5039L25.2042 31.5039L25.204 31.0039ZM1.94716 31.0039L1.94702 31.5039H1.94716V31.0039ZM1.0038 30.0107L0.50582 29.9659L0.50582 29.9659L1.0038 30.0107ZM13.5751 17.2266V17.7266C18.6652 17.7266 21.5853 20.0311 23.2906 22.7022C25.0156 25.404 25.5098 28.5064 25.6494 30.0556L26.1474 30.0107L26.6453 29.9659C26.5001 28.3537 25.985 25.064 24.1335 22.1641C22.2624 19.2334 19.0387 16.7266 13.5751 16.7266V17.2266ZM26.1474 30.0107L25.6494 30.0556C25.6702 30.2871 25.4888 30.5038 25.2038 30.5039L25.204 31.0039L25.2042 31.5039C26.0234 31.5036 26.7236 30.8343 26.6453 29.9659L26.1474 30.0107ZM25.204 31.0039V30.5039H1.94716V31.0039V31.5039H25.204V31.0039ZM1.94716 31.0039L1.94731 30.5039C1.66237 30.5038 1.48094 30.2871 1.50179 30.0556L1.0038 30.0107L0.50582 29.9659C0.427601 30.8343 1.12766 31.5037 1.94702 31.5039L1.94716 31.0039ZM1.0038 30.0107L1.50179 30.0556C1.64134 28.5064 2.13538 25.404 3.86019 22.7023C5.56538 20.0313 8.48518 17.7267 13.5751 17.7266L13.5751 17.2266L13.5751 16.7266C8.1117 16.7267 4.88824 19.2335 3.01731 22.1642C1.166 25.0641 0.651045 28.3537 0.50582 29.9659L1.0038 30.0107Z" fill="white"/>
</svg>
