<svg width="22" height="22" viewBox="0 0 22 22" fill="none" xmlns="http://www.w3.org/2000/svg">
<path d="M20.7599 11.4386C21.0022 11.5712 21.306 11.4823 21.4386 11.2401C21.5712 10.9978 21.4823 10.694 21.2401 10.5614L20.7599 11.4386ZM3.06242 1.18204L2.81742 1.61794L2.82235 1.62064L3.06242 1.18204ZM1.60599 1.21303L1.34199 0.788401L1.34199 0.788401L1.60599 1.21303ZM1.01473 2.45511L0.520927 2.53355C0.526486 2.56855 0.53575 2.60286 0.548562 2.63589L1.01473 2.45511ZM3.86229 11.1808C3.96214 11.4382 4.25179 11.566 4.50925 11.4662C4.76671 11.3663 4.89448 11.0767 4.79464 10.8192L3.86229 11.1808ZM21.2401 11.4386C21.4823 11.306 21.5712 11.0022 21.4386 10.7599C21.306 10.5177 21.0022 10.4288 20.7599 10.5614L21.2401 11.4386ZM3.06242 20.8179L2.82234 20.3793L2.81744 20.3821L3.06242 20.8179ZM1.60599 20.787L1.34199 21.2116L1.34199 21.2116L1.60599 20.787ZM1.01473 19.5449L0.548562 19.3641C0.53575 19.3971 0.526486 19.4314 0.520927 19.4664L1.01473 19.5449ZM4.79464 11.1808C4.89448 10.9233 4.76671 10.6337 4.50925 10.5338C4.25179 10.434 3.96214 10.5618 3.86229 10.8192L4.79464 11.1808ZM21 11.5C21.2761 11.5 21.5 11.2762 21.5 11C21.5 10.7239 21.2761 10.5 21 10.5V11.5ZM4.32843 10.5C4.05229 10.5 3.82843 10.7239 3.82843 11C3.82843 11.2762 4.05229 11.5 4.32843 11.5V10.5ZM21 11L21.2401 10.5614L3.30248 0.743442L3.06242 1.18204L2.82235 1.62064L20.7599 11.4386L21 11ZM3.06242 1.18204L3.3074 0.74617C2.69795 0.40363 1.93558 0.419362 1.34199 0.788401L1.60599 1.21303L1.86998 1.63765C2.15268 1.4619 2.5249 1.45349 2.81744 1.61791L3.06242 1.18204ZM1.60599 1.21303L1.34199 0.788401C0.743875 1.16026 0.410228 1.83671 0.520927 2.53355L1.01473 2.45511L1.50854 2.37666C1.46487 2.10174 1.59182 1.81059 1.86998 1.63765L1.60599 1.21303ZM1.01473 2.45511L0.548562 2.63589L3.86229 11.1808L4.32847 11L4.79464 10.8192L1.48091 2.27433L1.01473 2.45511ZM21 11L20.7599 10.5614L2.82235 20.3793L3.06242 20.8179L3.30248 21.2565L21.2401 11.4386L21 11ZM3.06242 20.8179L2.81744 20.3821C2.5249 20.5465 2.15268 20.5381 1.86998 20.3623L1.60599 20.787L1.34199 21.2116C1.93558 21.5806 2.69795 21.5964 3.3074 21.2538L3.06242 20.8179ZM1.60599 20.787L1.86998 20.3623C1.59182 20.1894 1.46487 19.8982 1.50854 19.6233L1.01473 19.5449L0.520927 19.4664C0.410228 20.1633 0.743875 20.8397 1.34199 21.2116L1.60599 20.787ZM1.01473 19.5449L1.48091 19.7257L4.79464 11.1808L4.32847 11L3.86229 10.8192L0.548562 19.3641L1.01473 19.5449ZM21 11V10.5H4.32843V11V11.5H21V11Z" fill="white"/>
</svg>
