<svg width="22" height="22" viewBox="0 0 22 22" fill="none" xmlns="http://www.w3.org/2000/svg">
<path fill-rule="evenodd" clip-rule="evenodd" d="M11 13.8581C9.42207 13.8581 8.14288 12.5788 8.14288 11.0007C8.14288 9.42265 9.42207 8.14337 11 8.14337C12.578 8.14337 13.8572 9.42265 13.8572 11.0007C13.8572 11.7585 13.5562 12.4853 13.0203 13.0212C12.4845 13.557 11.7578 13.8581 11 13.8581Z" stroke="white" stroke-linecap="round" stroke-linejoin="round"/>
<path fill-rule="evenodd" clip-rule="evenodd" d="M18.5957 16.8054V14.8881C18.5957 14.4134 18.7843 13.958 19.12 13.6223L20.4757 12.2665C21.1748 11.5674 21.1748 10.434 20.4757 9.73491L19.12 8.37909C18.7843 8.04338 18.5957 7.58806 18.5957 7.11329V5.19458C18.5957 4.20592 17.7943 3.40445 16.8057 3.40445H14.8871C14.4124 3.40444 13.9571 3.21584 13.6214 2.88012L12.2657 1.52431C11.5667 0.82523 10.4333 0.82523 9.73428 1.52431L8.37857 2.88012C8.04288 3.21584 7.58759 3.40444 7.11285 3.40445H5.19428C4.71929 3.40445 4.26378 3.59325 3.92805 3.92927C3.59232 4.26529 3.4039 4.72099 3.40428 5.19601V7.11329C3.40427 7.58806 3.21568 8.04338 2.87999 8.37909L1.52427 9.73491C0.825242 10.434 0.825242 11.5674 1.52427 12.2665L2.87999 13.6223C3.21568 13.958 3.40427 14.4134 3.40428 14.8881V16.8054C3.40428 17.7941 4.20569 18.5956 5.19428 18.5956H7.11285C7.58759 18.5956 8.04288 18.7842 8.37857 19.1199L9.73428 20.4757C10.4333 21.1748 11.5667 21.1748 12.2657 20.4757L13.6214 19.1199C13.9571 18.7842 14.4124 18.5956 14.8871 18.5956H16.8043C17.2793 18.5959 17.7349 18.4075 18.0709 18.0717C18.4069 17.736 18.5957 17.2804 18.5957 16.8054Z" stroke="white" stroke-linecap="round" stroke-linejoin="round"/>
</svg>
